<svg id="Layer_1" xmlns="http://www.w3.org/2000/svg" viewBox="0 0 360 360"><style>.st0{fill:#0aac4b}</style><path d="M178.1 141.2c0 9.5-1.3 18.5-4 26.9-2.6 8.4-6.4 16-11.2 22.7l28.2 28.2-24.8 20.3-27.7-27.3c-5.8 3.1-12 5.5-18.6 7.1-6.6 1.6-13.6 2.4-21 2.4-23.4 0-42.3-7.6-56.9-22.7-14.5-15.1-21.8-34.3-21.8-57.5v-34c0-23.1 7.2-42.3 21.8-57.5C56.6 34.6 75.5 27 98.8 27c23.5 0 42.5 7.6 57.3 22.8 14.7 15.2 22.1 34.3 22.1 57.5v33.9zm-37.8-34.3c0-14.7-3.7-26.8-11-36.2-7.4-9.4-17.5-14.2-30.5-14.2-12.8.1-22.8 4.8-30 14.2-7.1 9.4-10.7 21.5-10.7 36.2v34.3c0 15 3.6 27.2 10.8 36.6C76.1 187.3 86.1 192 99 192c13 0 23.1-4.7 30.4-14.2 7.3-9.4 10.9-21.6 10.9-36.6v-34.3z"/><path class="st0" d="M261 118.5s3.6 4.3 6.6 0l13.2-14s2.3-2.3 2.3-4.3V80.3s.3-8.9-7.1-8.9h-23.7s-6.9 1.8-6.9 9.4v20.6s1.3 3.1 2.8 4.6l12.8 12.5z"/><path d="M252.8 132.4s4.3-3.6 0-6.6l-14-13.2s-2.3-2.3-4.3-2.3h-19.9s-8.9-.3-8.9 7.1V141s1.8 6.9 9.4 6.9h20.6s3.1-1.3 4.6-2.8l12.5-12.7zM275.8 132.4s-4.3-3.6 0-6.6l14-13.2s2.3-2.3 4.3-2.3H314s8.9-.3 8.9 7.1V141s-1.8 6.9-9.4 6.9h-20.6s-3.1-1.3-4.6-2.8l-12.5-12.7zM261 142.1s3.6-4.3 6.6 0l13.2 14s2.3 2.3 2.3 4.3v19.9s.3 8.9-7.1 8.9h-23.7s-6.9-1.8-6.9-9.4v-20.6s1.3-3.1 2.8-4.6l12.8-12.5z"/><path class="st0" d="M264.2 54.6L254 64.5h20.7z"/><path d="M188 129.2l10 10.2v-20.7zM340.5 129.2l-9.9 10.2v-20.7zM264.2 205.6l-10.2-10h20.7z"/><g><path d="M77.2 283.6c0 3.1-.4 6-1.3 8.7s-2.2 5.2-3.8 7.3l8.7 8.4-5.4 5.2-8.9-8.5c-1.9 1.2-3.9 2.1-6.1 2.7-2.2.6-4.5.9-7 .9-6.8 0-12.3-2.3-16.6-7-4.3-4.7-6.4-10.6-6.4-17.7v-10.4c0-7.1 2.1-13 6.4-17.7 4.3-4.7 9.8-7.1 16.6-7.1 7 0 12.8 2.4 17.2 7.1s6.6 10.6 6.6 17.7v10.4zm-7.9-10.4c0-5.3-1.4-9.7-4.3-13.1-2.9-3.4-6.7-5.1-11.6-5.1-4.6 0-8.2 1.7-11 5.1-2.7 3.4-4.1 7.8-4.1 13.1v10.4c0 5.4 1.4 9.8 4.1 13.2 2.7 3.4 6.4 5.1 11 5.1 4.9 0 8.8-1.7 11.6-5.1 2.9-3.4 4.3-7.8 4.3-13.2v-10.4zM109.6 301.2c-1.4 2.3-3.1 4.1-5.2 5.4-2.1 1.3-4.6 1.9-7.4 1.9-4.7 0-8.4-1.5-11-4.5-2.6-3-4-7.7-4-14.1v-25.5h7.9V290c0 4.6.7 7.8 2 9.5s3.5 2.6 6.4 2.6c2.8 0 5.1-.6 6.9-1.7 1.8-1.1 3.2-2.7 4.1-4.8v-31.2h7.9v43.3h-7.1l-.5-6.5zM141.7 308.4c-6.2 0-11.1-2-14.5-6s-5.2-9.2-5.2-15.7V285c0-6.2 1.8-11.4 5.4-15.4 3.6-4.1 8-6.1 13.1-6.1 5.8 0 10.1 1.8 13 5.4s4.3 8.4 4.3 14.4v4.2h-27.7l-.1.2c0 4.3 1 7.9 2.9 10.6 1.9 2.7 4.9 4.1 8.8 4.1 2.7 0 5-.4 7-1.1 2-.8 3.7-1.8 5.2-3.1l3.1 5.1c-1.5 1.5-3.6 2.8-6.1 3.8-2.5.8-5.6 1.3-9.2 1.3zm-1.2-38.7c-2.7 0-5 1.1-6.8 3.2-1.8 2.1-2.9 4.8-3.3 8.1l.1.2H150v-.6c0-3.1-.8-5.7-2.3-7.8-1.6-2.1-4-3.1-7.2-3.1zM190.9 301.2c-1.4 2.3-3.1 4.1-5.2 5.4-2.1 1.3-4.6 1.9-7.4 1.9-4.7 0-8.4-1.5-11-4.5-2.6-3-4-7.7-4-14.1v-25.5h7.9V290c0 4.6.7 7.8 2 9.5 1.4 1.7 3.5 2.6 6.4 2.6 2.8 0 5.1-.6 6.9-1.7 1.8-1.1 3.2-2.7 4.1-4.8v-31.2h7.9v43.3h-7.1l-.5-6.5zM224.6 308.4c-6.2 0-11.1-2-14.5-6-3.5-4-5.2-9.2-5.2-15.7V285c0-6.2 1.8-11.4 5.4-15.4 3.6-4.1 8-6.1 13.1-6.1 5.8 0 10.1 1.8 13 5.4s4.3 8.4 4.3 14.4v4.2H213l-.1.2c0 4.3 1 7.9 2.9 10.6s4.9 4.1 8.8 4.1c2.7 0 5-.4 7-1.1 2-.8 3.7-1.8 5.2-3.1l3.1 5.1c-1.5 1.5-3.6 2.8-6.1 3.8-2.6.8-5.6 1.3-9.2 1.3zm-1.2-38.7c-2.7 0-5 1.1-6.8 3.2-1.8 2.1-2.9 4.8-3.3 8.1l.1.2h19.5v-.6c0-3.1-.8-5.7-2.3-7.8-1.6-2.1-4-3.1-7.2-3.1zM291.1 249.3V288c0 6.4-1.9 11.4-5.6 15s-8.5 5.4-14.3 5.4c-5.9 0-10.7-1.8-14.4-5.4-3.7-3.6-5.6-8.6-5.6-15v-38.7h2.2V288c0 5.5 1.7 9.9 5 13.3 3.3 3.3 7.6 5 12.7 5s9.4-1.7 12.7-5c3.3-3.3 5-7.7 5-13.3v-38.7h2.3zM333.5 286.7c0 6.7-1.4 11.9-4.3 15.8s-6.9 5.8-11.9 5.8c-3.4 0-6.3-.7-8.8-2-2.5-1.3-4.5-3.1-5.9-5.4v23.2h-2.2v-28.5c0-.1 0-.1-.1-.2s0-.1 0-.2v-17.6-.1c0-.1 0-.1.1-.3V264h1.7l.4 7.6c1.4-2.6 3.4-4.7 5.9-6.2 2.5-1.5 5.4-2.3 8.8-2.3 5.1 0 9.1 2 12 6.1 2.9 4 4.3 9.5 4.3 16.3v1.2zm-2.2-.8c0-6-1.2-10.9-3.6-14.6-2.4-3.7-5.9-5.6-10.5-5.6-4.1 0-7.3 1-9.6 3.1s-4 4.6-5 7.6V297c1.1 2.8 2.9 5.1 5.4 6.7 2.5 1.7 5.6 2.5 9.4 2.5 4.6 0 8-1.8 10.4-5.3 2.4-3.5 3.6-8.3 3.6-14.2v-.8z"/></g></svg>