<svg id="Layer_1" xmlns="http://www.w3.org/2000/svg" viewBox="0 0 360 360"><style>.st0{fill:#0aac4b}</style><path d="M181.6 185.7c0 9.5-1.3 18.5-4 26.9-2.6 8.4-6.4 16-11.2 22.7l28.2 28.2-24.8 20.3-27.7-27.3c-5.8 3.1-12 5.5-18.6 7.1-6.6 1.6-13.6 2.4-21 2.4-23.4 0-42.3-7.6-56.9-22.7-14.5-15.1-21.8-34.3-21.8-57.5v-34c0-23.1 7.2-42.3 21.8-57.5C60.1 79 79 71.4 102.2 71.4c23.5 0 42.5 7.6 57.3 22.8 14.7 15.2 22.1 34.3 22.1 57.5v34zm-37.8-34.3c0-14.7-3.7-26.8-11-36.2-7.4-9.4-17.5-14.2-30.5-14.2-12.8 0-22.8 4.7-29.9 14.2-7.1 9.4-10.7 21.5-10.7 36.2v34.3c0 15 3.6 27.2 10.8 36.6 7.2 9.4 17.2 14.2 30.1 14.2 13 0 23.1-4.7 30.4-14.2 7.3-9.4 10.9-21.6 10.9-36.6v-34.3z"/><path class="st0" d="M264.5 163s3.6 4.3 6.6 0l13.2-14s2.3-2.3 2.3-4.3v-19.9s.3-8.9-7.1-8.9h-23.7s-6.9 1.8-6.9 9.4v20.6s1.3 3.1 2.8 4.6l12.8 12.5z"/><path d="M256.2 176.9s4.3-3.6 0-6.6l-14-13.2s-2.3-2.3-4.3-2.3H218s-8.9-.3-8.9 7.1v23.7s1.8 6.9 9.4 6.9h20.6s3.1-1.3 4.6-2.8l12.5-12.8zM279.3 176.9s-4.3-3.6 0-6.6l14-13.2s2.3-2.3 4.3-2.3h19.9s8.9-.3 8.9 7.1v23.7s-1.8 6.9-9.4 6.9h-20.6s-3.1-1.3-4.6-2.8l-12.5-12.8zM264.5 186.6s3.6-4.3 6.6 0l13.2 14s2.3 2.3 2.3 4.3v19.9s.3 8.9-7.1 8.9h-23.7s-6.9-1.8-6.9-9.4v-20.6s1.3-3.1 2.8-4.6l12.8-12.5z"/><path class="st0" d="M267.7 99.1l-10.2 9.9h20.6z"/><path d="M191.5 173.6l9.9 10.3v-20.7zM344 173.6l-9.9 10.3v-20.7zM267.7 250l-10.2-9.9h20.6z"/></svg>