<?xml version="1.0" encoding="utf-8"?>
<!-- Generator: Adobe Illustrator 19.1.0, SVG Export Plug-In . SVG Version: 6.00 Build 0)  -->
<svg version="1.1" id="Layer_1" xmlns="http://www.w3.org/2000/svg" xmlns:xlink="http://www.w3.org/1999/xlink" x="0px" y="0px"
	 viewBox="0 0 360 360" style="enable-background:new 0 0 360 360;" xml:space="preserve">
<style type="text/css">
	.st0{fill:#0AAC4B;}
</style>
<g>
	<g>
		<path d="M178.1,141.2c0,9.5-1.3,18.5-4,26.9c-2.6,8.4-6.4,16-11.2,22.7l28.2,28.2l-24.8,20.3L138.6,212c-5.8,3.1-12,5.5-18.6,7.1
			c-6.6,1.6-13.6,2.4-21,2.4c-23.4,0-42.3-7.6-56.9-22.7c-14.5-15.1-21.8-34.3-21.8-57.5v-34c0-23.1,7.2-42.3,21.8-57.5
			c14.5-15.2,33.4-22.8,56.7-22.8c23.5,0,42.5,7.6,57.3,22.8c14.7,15.2,22.1,34.3,22.1,57.5V141.2z M140.3,106.9
			c0-14.7-3.7-26.8-11-36.2c-7.4-9.4-17.5-14.2-30.5-14.2C86,56.6,76,61.3,68.8,70.7c-7.1,9.4-10.7,21.5-10.7,36.2v34.3
			c0,15,3.6,27.2,10.8,36.6C76.1,187.3,86.1,192,99,192c13,0,23.1-4.7,30.4-14.2c7.3-9.4,10.9-21.6,10.9-36.6V106.9z"/>
	</g>
	<g>
		<path class="st0" d="M261,118.5c0,0,3.6,4.3,6.6,0l13.2-14c0,0,2.3-2.3,2.3-4.3V80.3c0,0,0.3-8.9-7.1-8.9h-23.7
			c0,0-6.9,1.8-6.9,9.4v20.6c0,0,1.3,3.1,2.8,4.6L261,118.5z"/>
		<path d="M252.8,132.4c0,0,4.3-3.6,0-6.6l-14-13.2c0,0-2.3-2.3-4.3-2.3h-19.9c0,0-8.9-0.3-8.9,7.1V141c0,0,1.8,6.9,9.4,6.9h20.6
			c0,0,3.1-1.3,4.6-2.8L252.8,132.4z"/>
		<path d="M275.8,132.4c0,0-4.3-3.6,0-6.6l14-13.2c0,0,2.3-2.3,4.3-2.3H314c0,0,8.9-0.3,8.9,7.1V141c0,0-1.8,6.9-9.4,6.9h-20.6
			c0,0-3.1-1.3-4.6-2.8L275.8,132.4z"/>
		<path d="M261,142.1c0,0,3.6-4.3,6.6,0l13.2,14c0,0,2.3,2.3,2.3,4.3v19.9c0,0,0.3,8.9-7.1,8.9h-23.7c0,0-6.9-1.8-6.9-9.4v-20.6
			c0,0,1.3-3.1,2.8-4.6L261,142.1z"/>
		<polygon class="st0" points="264.2,54.6 254,64.5 274.7,64.5 		"/>
		<polygon points="188,129.2 198,139.4 198,118.7 		"/>
		<polygon points="340.5,129.2 330.6,139.4 330.6,118.7 		"/>
		<polygon points="264.2,205.6 254,195.6 274.7,195.6 		"/>
	</g>
	<g>
		<path d="M77.2,283.6c0,3.1-0.4,6-1.3,8.7s-2.2,5.2-3.8,7.3l8.7,8.4l-5.4,5.2l-8.9-8.5c-1.9,1.2-3.9,2.1-6.1,2.7
			c-2.2,0.6-4.5,0.9-7,0.9c-6.8,0-12.3-2.3-16.6-7c-4.3-4.7-6.4-10.6-6.4-17.7v-10.4c0-7.1,2.1-13,6.4-17.7
			c4.3-4.7,9.8-7.1,16.6-7.1c7,0,12.8,2.4,17.2,7.1s6.6,10.6,6.6,17.7V283.6z M69.3,273.2c0-5.3-1.4-9.7-4.3-13.1
			c-2.9-3.4-6.7-5.1-11.6-5.1c-4.6,0-8.2,1.7-11,5.1c-2.7,3.4-4.1,7.8-4.1,13.1v10.4c0,5.4,1.4,9.8,4.1,13.2c2.7,3.4,6.4,5.1,11,5.1
			c4.9,0,8.8-1.7,11.6-5.1c2.9-3.4,4.3-7.8,4.3-13.2V273.2z"/>
		<path d="M109.6,301.2c-1.4,2.3-3.1,4.1-5.2,5.4c-2.1,1.3-4.6,1.9-7.4,1.9c-4.7,0-8.4-1.5-11-4.5c-2.6-3-4-7.7-4-14.1v-25.5h7.9
			v25.6c0,4.6,0.7,7.8,2,9.5s3.5,2.6,6.4,2.6c2.8,0,5.1-0.6,6.9-1.7c1.8-1.1,3.2-2.7,4.1-4.8v-31.2h7.9v43.3h-7.1L109.6,301.2z"/>
		<path d="M141.7,308.4c-6.2,0-11.1-2-14.5-6s-5.2-9.2-5.2-15.7V285c0-6.2,1.8-11.4,5.4-15.4c3.6-4.1,8-6.1,13.1-6.1
			c5.8,0,10.1,1.8,13,5.4s4.3,8.4,4.3,14.4v4.2h-27.7l-0.1,0.2c0,4.3,1,7.9,2.9,10.6c1.9,2.7,4.9,4.1,8.8,4.1c2.7,0,5-0.4,7-1.1
			c2-0.8,3.7-1.8,5.2-3.1l3.1,5.1c-1.5,1.5-3.6,2.8-6.1,3.8C148.4,307.9,145.3,308.4,141.7,308.4z M140.5,269.7
			c-2.7,0-5,1.1-6.8,3.2c-1.8,2.1-2.9,4.8-3.3,8.1l0.1,0.2H150v-0.6c0-3.1-0.8-5.7-2.3-7.8C146.1,270.7,143.7,269.7,140.5,269.7z"/>
		<path d="M190.9,301.2c-1.4,2.3-3.1,4.1-5.2,5.4c-2.1,1.3-4.6,1.9-7.4,1.9c-4.7,0-8.4-1.5-11-4.5c-2.6-3-4-7.7-4-14.1v-25.5h7.9
			v25.6c0,4.6,0.7,7.8,2,9.5c1.4,1.7,3.5,2.6,6.4,2.6c2.8,0,5.1-0.6,6.9-1.7c1.8-1.1,3.2-2.7,4.1-4.8v-31.2h7.9v43.3h-7.1
			L190.9,301.2z"/>
		<path d="M224.6,308.4c-6.2,0-11.1-2-14.5-6c-3.5-4-5.2-9.2-5.2-15.7V285c0-6.2,1.8-11.4,5.4-15.4c3.6-4.1,8-6.1,13.1-6.1
			c5.8,0,10.1,1.8,13,5.4s4.3,8.4,4.3,14.4v4.2h-27.7l-0.1,0.2c0,4.3,1,7.9,2.9,10.6s4.9,4.1,8.8,4.1c2.7,0,5-0.4,7-1.1
			c2-0.8,3.7-1.8,5.2-3.1l3.1,5.1c-1.5,1.5-3.6,2.8-6.1,3.8C231.2,307.9,228.2,308.4,224.6,308.4z M223.4,269.7
			c-2.7,0-5,1.1-6.8,3.2c-1.8,2.1-2.9,4.8-3.3,8.1l0.1,0.2h19.5v-0.6c0-3.1-0.8-5.7-2.3-7.8C229,270.7,226.6,269.7,223.4,269.7z"/>
		<path d="M291.1,249.3V288c0,6.4-1.9,11.4-5.6,15s-8.5,5.4-14.3,5.4c-5.9,0-10.7-1.8-14.4-5.4c-3.7-3.6-5.6-8.6-5.6-15v-38.7h2.2
			V288c0,5.5,1.7,9.9,5,13.3c3.3,3.3,7.6,5,12.7,5c5.1,0,9.4-1.7,12.7-5c3.3-3.3,5-7.7,5-13.3v-38.7H291.1z"/>
		<path d="M333.5,286.7c0,6.7-1.4,11.9-4.3,15.8s-6.9,5.8-11.9,5.8c-3.4,0-6.3-0.7-8.8-2c-2.5-1.3-4.5-3.1-5.9-5.4v23.2h-2.2v-28.5
			c0-0.1,0-0.1-0.1-0.2s0-0.1,0-0.2v-17.6c0,0,0,0,0-0.1s0-0.1,0.1-0.3v-13.2h1.7l0.4,7.6c1.4-2.6,3.4-4.7,5.9-6.2
			c2.5-1.5,5.4-2.3,8.8-2.3c5.1,0,9.1,2,12,6.1c2.9,4,4.3,9.5,4.3,16.3V286.7z M331.3,285.9c0-6-1.2-10.9-3.6-14.6
			c-2.4-3.7-5.9-5.6-10.5-5.6c-4.1,0-7.3,1-9.6,3.1c-2.3,2.1-4,4.6-5,7.6V297c1.1,2.8,2.9,5.1,5.4,6.7c2.5,1.7,5.6,2.5,9.4,2.5
			c4.6,0,8-1.8,10.4-5.3c2.4-3.5,3.6-8.3,3.6-14.2V285.9z"/>
	</g>
</g>
</svg>
