<?xml version="1.0" encoding="utf-8"?>
<!-- Generator: Adobe Illustrator 19.1.0, SVG Export Plug-In . SVG Version: 6.00 Build 0)  -->
<svg version="1.1" id="Layer_1" xmlns="http://www.w3.org/2000/svg" xmlns:xlink="http://www.w3.org/1999/xlink" x="0px" y="0px"
	 viewBox="0 0 360 360" style="enable-background:new 0 0 360 360;" xml:space="preserve">
<style type="text/css">
	.st0{fill:#0AAC4B;}
</style>
<g>
	<path d="M181.6,185.7c0,9.5-1.3,18.5-4,26.9c-2.6,8.4-6.4,16-11.2,22.7l28.2,28.2l-24.8,20.3l-27.7-27.3c-5.8,3.1-12,5.5-18.6,7.1
		c-6.6,1.6-13.6,2.4-21,2.4c-23.4,0-42.3-7.6-56.9-22.7c-14.5-15.1-21.8-34.3-21.8-57.5v-34c0-23.1,7.2-42.3,21.8-57.5
		C60.1,79,79,71.4,102.2,71.4c23.5,0,42.5,7.6,57.3,22.8c14.7,15.2,22.1,34.3,22.1,57.5V185.7z M143.8,151.4
		c0-14.7-3.7-26.8-11-36.2c-7.4-9.4-17.5-14.2-30.5-14.2c-12.8,0-22.8,4.7-29.9,14.2c-7.1,9.4-10.7,21.5-10.7,36.2v34.3
		c0,15,3.6,27.2,10.8,36.6c7.2,9.4,17.2,14.2,30.1,14.2c13,0,23.1-4.7,30.4-14.2c7.3-9.4,10.9-21.6,10.9-36.6V151.4z"/>
</g>
<g>
	<path class="st0" d="M264.5,163c0,0,3.6,4.3,6.6,0l13.2-14c0,0,2.3-2.3,2.3-4.3v-19.9c0,0,0.3-8.9-7.1-8.9h-23.7
		c0,0-6.9,1.8-6.9,9.4v20.6c0,0,1.3,3.1,2.8,4.6L264.5,163z"/>
	<path d="M256.2,176.9c0,0,4.3-3.6,0-6.6l-14-13.2c0,0-2.3-2.3-4.3-2.3H218c0,0-8.9-0.3-8.9,7.1v23.7c0,0,1.8,6.9,9.4,6.9h20.6
		c0,0,3.1-1.3,4.6-2.8L256.2,176.9z"/>
	<path d="M279.3,176.9c0,0-4.3-3.6,0-6.6l14-13.2c0,0,2.3-2.3,4.3-2.3h19.9c0,0,8.9-0.3,8.9,7.1v23.7c0,0-1.8,6.9-9.4,6.9h-20.6
		c0,0-3.1-1.3-4.6-2.8L279.3,176.9z"/>
	<path d="M264.5,186.6c0,0,3.6-4.3,6.6,0l13.2,14c0,0,2.3,2.3,2.3,4.3v19.9c0,0,0.3,8.9-7.1,8.9h-23.7c0,0-6.9-1.8-6.9-9.4v-20.6
		c0,0,1.3-3.1,2.8-4.6L264.5,186.6z"/>
	<polygon class="st0" points="267.7,99.1 257.5,109 278.1,109 	"/>
	<polygon points="191.5,173.6 201.4,183.9 201.4,163.2 	"/>
	<polygon points="344,173.6 334.1,183.9 334.1,163.2 	"/>
	<polygon points="267.7,250 257.5,240.1 278.1,240.1 	"/>
</g>
</svg>
